# xmcd
#
# Track frame offsets:
#	150
#	29075
#	49648
#	76645
#	101220
#	128988
#	154263
#	176110
#	203438
#	223740
#
# Disc length: 3327 seconds
#
# Revision: 0
# Processed by: cddbd v1.5.1PL0 Copyright (c) Steve Scherf et al.
# Submitted via: EasyCDDAExtractor 8.1.4.1
#
DISCID=880cfd0a
DTITLE=Various Artist - Tinh Ngoai O
DYEAR=1900
DGENRE=
TTITLE0=Tuan Vu - Doi nha chia ly
TTITLE1=Giao Linh - Duoc tin em lay chong
TTITLE2=Tuan Anh - Giot le sau
TTITLE3=Tuan Vu - Dem bo vo
TTITLE4=Giao Linh - Hoa muoi gio
TTITLE5=Tuan Vu - Mua dem ngoai o
TTITLE6=Giao Linh - Khi da yeu
TTITLE7=Tuan Vu - Loi tinh viet voi
TTITLE8=Giao Linh - Ngoai o buon
TTITLE9=Tuan Anh - Ngoai o den vang
EXTD=
EXTT0=
EXTT1=
EXTT2=
EXTT3=
EXTT4=
EXTT5=
EXTT6=
EXTT7=
EXTT8=
EXTT9=
PLAYORDER=
